<?xml version="1.0"?>
<svg xmlns="http://www.w3.org/2000/svg" xmlns:xlink="http://www.w3.org/1999/xlink" version="1.1" id="Layer_1" x="0px" y="0px" viewBox="0 0 512 512" style="enable-background:new 0 0 512 512;" xml:space="preserve" width="512px" height="512px"><g><g>
	<g>
		<path d="M392.531,221.867c-6.229,0-12.134,1.775-17.229,4.83c-1.877-21.803-20.224-38.963-42.505-38.963    c-10.829,0-20.736,4.062-28.271,10.735c-6.042-16.222-21.692-27.802-39.996-27.802c-11.042,0-21.129,4.224-28.715,11.136    L221.813,41.737C217.836,5.419,196.418,0,184.002,0c-22.562,0-38.938,17.946-38.929,42.974l8.533,238.933    c0.162,4.702,3.977,8.363,8.832,8.226c4.702-0.179,8.388-4.13,8.226-8.841l-8.533-238.626c0-12.74,6.758-25.6,21.871-25.6    c4.437,0,17.937,0,20.838,26.453l17.067,170.667c0.452,4.523,4.275,8.047,8.917,7.671c4.54-0.23,8.107-3.977,8.107-8.525    c0-14.114,11.486-25.6,25.6-25.6c14.114,0,25.6,11.486,25.6,25.6V230.4c0,4.71,3.823,8.533,8.533,8.533    c4.71,0,8.533-3.823,8.533-8.533c0-14.114,11.486-25.6,25.6-25.6s25.6,11.486,25.6,25.6V256c0,4.71,3.823,8.533,8.533,8.533    c4.71,0,8.533-3.823,8.533-8.533c0-8.934,8.132-17.067,17.067-17.067c8.61,0,17.067,8.457,17.067,17.067v110.933    c0,37.026-7.902,55.714-16.273,75.494c-6.204,14.66-12.604,29.773-16.606,52.506H186.092    c-9.429-41.216-31.249-91.332-64.939-149.111c-3.644-6.255-7.305-12.373-10.931-18.33c-9.301-15.24-10.402-35.499-2.679-49.254    c3.507-6.255,10.419-13.705,23.39-13.705c4.71,0,8.533-3.823,8.533-8.533s-3.823-8.533-8.533-8.533    c-16.563,0-30.157,7.962-38.272,22.417c-10.769,19.183-9.574,45.909,2.995,66.5c3.567,5.862,7.168,11.887,10.761,18.031    c34.62,59.401,56.294,110.106,64.418,150.724c0.794,3.994,4.292,6.861,8.363,6.861h204.8c4.25,0,7.842-3.123,8.448-7.322    c3.533-24.73,10.172-40.422,16.597-55.603c8.661-20.48,17.621-41.651,17.621-82.142V256    C426.664,238.14,410.391,221.867,392.531,221.867z" data-original="#000000" class="active-path" data-old_color="#FDFCFC" fill="#FFFEFE"/>
	</g>
</g></g> </svg>
